{"title":"O Khuda VIDEO Song -Hero - Sooraj Pancholi, Athiya Shetty -truHD","uid":12382985,"size":53449334,"categoryP":"video","categoryS":"music_videos","magnet":"?xt=urn:btih:77a0f00b7f5cd2fd2dd1f22d83a26ea86963a242&amp;dn=O+Khuda+VIDEO+Song+-Hero+-+Sooraj+Pancholi%2C+Athiya+Shetty+-truHD&amp;tr=udp%3A%2F%2Ftracker.openbittorrent.com%3A80&amp;tr=udp%3A%2F%2Fopen.demonii.com%3A1337&amp;tr=udp%3A%2F%2Ftracker.coppersurfer.tk%3A6969&amp;tr=udp%3A%2F%2Fexodus.desync.com%3A6969","seeders":1,"leechers":0,"uploader":"Aainul","files":5,"time":1441790747,"description":"O Khuda VIDEO Song - Hero - Sooraj Pancholi, Athiya Shetty - 1080p Full HD - Team truHD HEVC\n\nSource: WEB-DL\n\nEncoder: truHD HEVC Encoding Team\n\nEncoded File Info:\n\nGeneral\n\nFormat : MPEG-4\nFormat profile : Base Media\nCodec ID : iso4\nFile size : 50.7 MiB\nDuration : 2mn 35s\nOverall bit rate mode : Variable\nOverall bit rate : 2 743 Kbps\nEncoded date : UTC 2015-09-07 10:02:40\nTagged date : UTC 2015-09-07 10:02:40\n\nVideo\nID : 1\nFormat : HEVC\nFormat/Info : High Efficiency Video Coding\nCodec ID : hvc1\nCodec ID/Info : High Efficiency Video Coding\nDuration : 2mn 35s\nBit rate : 2 643 Kbps\nMaximum bit rate : 10.8 Mbps\nWidth : 1 920 pixels\nHeight : 1 080 pixels\nDisplay aspect ratio : 16:9\nFrame rate mode : Constant\nFrame rate : 25.000 fps\nBits/(Pixel*Frame) : 0.051\nStream size : 48.8 MiB (96%)\nTitle : Video\nEncoded date : UTC 2015-09-07 10:02:40\nTagged date : UTC 2015-09-07 10:02:42\n\nAudio\nID : 2\nFormat : AAC\nFormat/Info : Advanced Audio Codec\nFormat profile : LC\nCodec ID : 40\nDuration : 2mn 35s\nBit rate mode : Variable\nBit rate : 99.0 Kbps\nMaximum bit rate : 115 Kbps\nChannel(s) : 2 channels\nChannel positions : Front: L R\nSampling rate : 44.1 KHz\nCompression mode : Lossy\nStream size : 1.83 MiB (4%)\nTitle : \nEncoded date : UTC 2015-09-07 08:57:59\nTagged date : UTC 2015-09-07 10:02:42\n\n\nScreenShots:\n &lt;a href=&quot;\nhttps://yuq.me/users/36/459/9HWem5A7Z6.jpg&quot; rel=&quot;nofollow&quot; target=&quot;_NEW&quot;&gt;\nhttps://yuq.me/users/36/459/9HWem5A7Z6.jpg&lt;/a&gt;\n\nLike Us On FB And Request Accepted\n\nKickAssTorrents:   &lt;a href=&quot;\nhttps://kat.cr/user/Aainul/&quot; rel=&quot;nofollow&quot; target=&quot;_NEW&quot;&gt;\nhttps://kat.cr/user/Aainul/&lt;/a&gt;\nGloTorrents:   &lt;a href=&quot;\nhttps://glodls.to/user/Aainul&quot; rel=&quot;nofollow&quot; target=&quot;_NEW&quot;&gt;\nhttps://glodls.to/user/Aainul&lt;/a&gt;\nThePirateBay:   &lt;a href=&quot;\nhttps://thepiratebay.vg/user/Aainul/&quot; rel=&quot;nofollow&quot; target=&quot;_NEW&quot;&gt;\nhttps://thepiratebay.vg/user/Aainul/&lt;/a&gt;\n1337x Torrents:   &lt;a href=&quot;\nhttp://1337.to/user/Aainul/&quot; rel=&quot;nofollow&quot; target=&quot;_NEW&quot;&gt;\nhttp://1337.to/user/Aainul/&lt;/a&gt;\n\n\nNote: All Videos Uploaded By Me Are For Review Purpose. If You Like IT, Google IT And Buy IT - Thanks\n\n\nKing Regards\ntruHD HEVC Team\n\nShare Among Friends And Relatives","torrent":{"xt":"urn:btih:77a0f00b7f5cd2fd2dd1f22d83a26ea86963a242","amp;dn":"O+Khuda+VIDEO+Song+-Hero+-+Sooraj+Pancholi%2C+Athiya+Shetty+-truHD","amp;tr":["udp%3A%2F%2Ftracker.openbittorrent.com%3A80","udp%3A%2F%2Fopen.demonii.com%3A1337","udp%3A%2F%2Ftracker.coppersurfer.tk%3A6969","udp%3A%2F%2Fexodus.desync.com%3A6969"],"infoHash":"77a0f00b7f5cd2fd2dd1f22d83a26ea86963a242","infoHashBuffer":{"type":"Buffer","data":[119,160,240,11,127,92,210,253,45,209,242,45,131,162,110,168,105,99,162,66]},"announce":[],"urlList":[]}}